<mxfile host="app.diagrams.net" modified="2023-12-27T13:20:34.621Z" agent="Mozilla/5.0 (Windows NT 10.0; Win64; x64) AppleWebKit/537.36 (KHTML, like Gecko) Chrome/120.0.0.0 Safari/537.36" etag="2ixb-I_7NLjUIeXEj7bf" version="22.1.13" type="device">
  <diagram name="Страница — 1" id="Tw352as4noVGVlc6z3au">
    <mxGraphModel dx="1050" dy="522" grid="1" gridSize="10" guides="1" tooltips="1" connect="1" arrows="1" fold="1" page="1" pageScale="1" pageWidth="827" pageHeight="1169" math="0" shadow="0">
      <root>
        <mxCell id="0" />
        <mxCell id="1" parent="0" />
        <mxCell id="CwbjklTr63x836lTTLuU-12" style="edgeStyle=orthogonalEdgeStyle;rounded=0;orthogonalLoop=1;jettySize=auto;html=1;entryX=0.5;entryY=0;entryDx=0;entryDy=0;" edge="1" parent="1" source="CwbjklTr63x836lTTLuU-2" target="CwbjklTr63x836lTTLuU-8">
          <mxGeometry relative="1" as="geometry" />
        </mxCell>
        <mxCell id="CwbjklTr63x836lTTLuU-2" value="Начало&lt;br&gt;rotateLeft" style="strokeWidth=2;html=1;shape=mxgraph.flowchart.terminator;whiteSpace=wrap;" vertex="1" parent="1">
          <mxGeometry x="129" y="20" width="100" height="40" as="geometry" />
        </mxCell>
        <mxCell id="CwbjklTr63x836lTTLuU-3" value="Конец&lt;br&gt;rotateleft" style="strokeWidth=2;html=1;shape=mxgraph.flowchart.terminator;whiteSpace=wrap;" vertex="1" parent="1">
          <mxGeometry x="129" y="350" width="100" height="40" as="geometry" />
        </mxCell>
        <mxCell id="CwbjklTr63x836lTTLuU-5" style="edgeStyle=orthogonalEdgeStyle;rounded=0;orthogonalLoop=1;jettySize=auto;html=1;exitX=0.5;exitY=1;exitDx=0;exitDy=0;" edge="1" parent="1">
          <mxGeometry relative="1" as="geometry">
            <mxPoint x="179" y="100" as="sourcePoint" />
            <mxPoint x="179" y="100" as="targetPoint" />
          </mxGeometry>
        </mxCell>
        <mxCell id="CwbjklTr63x836lTTLuU-13" style="edgeStyle=orthogonalEdgeStyle;rounded=0;orthogonalLoop=1;jettySize=auto;html=1;exitX=0.5;exitY=1;exitDx=0;exitDy=0;entryX=0.5;entryY=0;entryDx=0;entryDy=0;" edge="1" parent="1" source="CwbjklTr63x836lTTLuU-8" target="CwbjklTr63x836lTTLuU-10">
          <mxGeometry relative="1" as="geometry" />
        </mxCell>
        <mxCell id="CwbjklTr63x836lTTLuU-8" value="уменьшение угла поворота машины&lt;br&gt;на car.rotate_angel." style="rounded=0;whiteSpace=wrap;html=1;" vertex="1" parent="1">
          <mxGeometry x="119" y="90" width="120" height="40" as="geometry" />
        </mxCell>
        <mxCell id="CwbjklTr63x836lTTLuU-14" style="edgeStyle=orthogonalEdgeStyle;rounded=0;orthogonalLoop=1;jettySize=auto;html=1;exitX=1;exitY=0.5;exitDx=0;exitDy=0;entryX=0.5;entryY=0;entryDx=0;entryDy=0;" edge="1" parent="1" source="CwbjklTr63x836lTTLuU-10" target="CwbjklTr63x836lTTLuU-11">
          <mxGeometry relative="1" as="geometry" />
        </mxCell>
        <mxCell id="CwbjklTr63x836lTTLuU-18" style="edgeStyle=orthogonalEdgeStyle;rounded=0;orthogonalLoop=1;jettySize=auto;html=1;" edge="1" parent="1" source="CwbjklTr63x836lTTLuU-10">
          <mxGeometry relative="1" as="geometry">
            <mxPoint x="179" y="280" as="targetPoint" />
            <Array as="points">
              <mxPoint x="60" y="185" />
            </Array>
          </mxGeometry>
        </mxCell>
        <mxCell id="CwbjklTr63x836lTTLuU-10" value="Угол оказался меньше 0?" style="rhombus;whiteSpace=wrap;html=1;" vertex="1" parent="1">
          <mxGeometry x="124" y="150" width="110" height="70" as="geometry" />
        </mxCell>
        <mxCell id="CwbjklTr63x836lTTLuU-17" style="edgeStyle=orthogonalEdgeStyle;rounded=0;orthogonalLoop=1;jettySize=auto;html=1;entryX=0.5;entryY=0;entryDx=0;entryDy=0;" edge="1" parent="1" source="CwbjklTr63x836lTTLuU-11" target="CwbjklTr63x836lTTLuU-16">
          <mxGeometry relative="1" as="geometry">
            <Array as="points">
              <mxPoint x="259" y="270" />
              <mxPoint x="179" y="270" />
            </Array>
          </mxGeometry>
        </mxCell>
        <mxCell id="CwbjklTr63x836lTTLuU-11" value="car.angel = 360 - car.angel;" style="rounded=0;whiteSpace=wrap;html=1;" vertex="1" parent="1">
          <mxGeometry x="199" y="220" width="120" height="40" as="geometry" />
        </mxCell>
        <mxCell id="CwbjklTr63x836lTTLuU-16" value="calcSpeed();" style="verticalLabelPosition=middle;verticalAlign=middle;html=1;shape=process;whiteSpace=wrap;rounded=1;size=0.14;arcSize=6;labelPosition=center;align=center;" vertex="1" parent="1">
          <mxGeometry x="129" y="300" width="100" height="30" as="geometry" />
        </mxCell>
        <mxCell id="CwbjklTr63x836lTTLuU-20" style="edgeStyle=orthogonalEdgeStyle;rounded=0;orthogonalLoop=1;jettySize=auto;html=1;entryX=0.5;entryY=0;entryDx=0;entryDy=0;entryPerimeter=0;" edge="1" parent="1" source="CwbjklTr63x836lTTLuU-16" target="CwbjklTr63x836lTTLuU-3">
          <mxGeometry relative="1" as="geometry" />
        </mxCell>
        <mxCell id="CwbjklTr63x836lTTLuU-21" style="edgeStyle=orthogonalEdgeStyle;rounded=0;orthogonalLoop=1;jettySize=auto;html=1;entryX=0.5;entryY=0;entryDx=0;entryDy=0;" edge="1" parent="1" source="CwbjklTr63x836lTTLuU-22" target="CwbjklTr63x836lTTLuU-26">
          <mxGeometry relative="1" as="geometry" />
        </mxCell>
        <mxCell id="CwbjklTr63x836lTTLuU-22" value="Начало&lt;br&gt;rotateright" style="strokeWidth=2;html=1;shape=mxgraph.flowchart.terminator;whiteSpace=wrap;" vertex="1" parent="1">
          <mxGeometry x="429" y="20" width="100" height="40" as="geometry" />
        </mxCell>
        <mxCell id="CwbjklTr63x836lTTLuU-23" value="Конец&lt;br&gt;rotateleft" style="strokeWidth=2;html=1;shape=mxgraph.flowchart.terminator;whiteSpace=wrap;" vertex="1" parent="1">
          <mxGeometry x="429" y="350" width="100" height="40" as="geometry" />
        </mxCell>
        <mxCell id="CwbjklTr63x836lTTLuU-24" style="edgeStyle=orthogonalEdgeStyle;rounded=0;orthogonalLoop=1;jettySize=auto;html=1;exitX=0.5;exitY=1;exitDx=0;exitDy=0;" edge="1" parent="1">
          <mxGeometry relative="1" as="geometry">
            <mxPoint x="479" y="100" as="sourcePoint" />
            <mxPoint x="479" y="100" as="targetPoint" />
          </mxGeometry>
        </mxCell>
        <mxCell id="CwbjklTr63x836lTTLuU-25" style="edgeStyle=orthogonalEdgeStyle;rounded=0;orthogonalLoop=1;jettySize=auto;html=1;exitX=0.5;exitY=1;exitDx=0;exitDy=0;entryX=0.5;entryY=0;entryDx=0;entryDy=0;" edge="1" parent="1" source="CwbjklTr63x836lTTLuU-26" target="CwbjklTr63x836lTTLuU-29">
          <mxGeometry relative="1" as="geometry" />
        </mxCell>
        <mxCell id="CwbjklTr63x836lTTLuU-26" value="увеличение угла поворота машины&lt;br&gt;на car.rotate_angel" style="rounded=0;whiteSpace=wrap;html=1;" vertex="1" parent="1">
          <mxGeometry x="419" y="90" width="120" height="40" as="geometry" />
        </mxCell>
        <mxCell id="CwbjklTr63x836lTTLuU-27" style="edgeStyle=orthogonalEdgeStyle;rounded=0;orthogonalLoop=1;jettySize=auto;html=1;exitX=1;exitY=0.5;exitDx=0;exitDy=0;entryX=0.5;entryY=0;entryDx=0;entryDy=0;" edge="1" parent="1" source="CwbjklTr63x836lTTLuU-29" target="CwbjklTr63x836lTTLuU-31">
          <mxGeometry relative="1" as="geometry" />
        </mxCell>
        <mxCell id="CwbjklTr63x836lTTLuU-28" style="edgeStyle=orthogonalEdgeStyle;rounded=0;orthogonalLoop=1;jettySize=auto;html=1;" edge="1" parent="1" source="CwbjklTr63x836lTTLuU-29">
          <mxGeometry relative="1" as="geometry">
            <mxPoint x="479" y="280" as="targetPoint" />
            <Array as="points">
              <mxPoint x="360" y="185" />
            </Array>
          </mxGeometry>
        </mxCell>
        <mxCell id="CwbjklTr63x836lTTLuU-29" value="Угол оказался больше 360?" style="rhombus;whiteSpace=wrap;html=1;" vertex="1" parent="1">
          <mxGeometry x="424" y="150" width="110" height="70" as="geometry" />
        </mxCell>
        <mxCell id="CwbjklTr63x836lTTLuU-30" style="edgeStyle=orthogonalEdgeStyle;rounded=0;orthogonalLoop=1;jettySize=auto;html=1;entryX=0.5;entryY=0;entryDx=0;entryDy=0;" edge="1" parent="1" source="CwbjklTr63x836lTTLuU-31" target="CwbjklTr63x836lTTLuU-32">
          <mxGeometry relative="1" as="geometry">
            <Array as="points">
              <mxPoint x="559" y="270" />
              <mxPoint x="479" y="270" />
            </Array>
          </mxGeometry>
        </mxCell>
        <mxCell id="CwbjklTr63x836lTTLuU-31" value="car.angel = car.angel - 360;" style="rounded=0;whiteSpace=wrap;html=1;" vertex="1" parent="1">
          <mxGeometry x="499" y="220" width="120" height="40" as="geometry" />
        </mxCell>
        <mxCell id="CwbjklTr63x836lTTLuU-32" value="calcSpeed();" style="verticalLabelPosition=middle;verticalAlign=middle;html=1;shape=process;whiteSpace=wrap;rounded=1;size=0.14;arcSize=6;labelPosition=center;align=center;" vertex="1" parent="1">
          <mxGeometry x="429" y="300" width="100" height="30" as="geometry" />
        </mxCell>
        <mxCell id="CwbjklTr63x836lTTLuU-33" style="edgeStyle=orthogonalEdgeStyle;rounded=0;orthogonalLoop=1;jettySize=auto;html=1;entryX=0.5;entryY=0;entryDx=0;entryDy=0;entryPerimeter=0;" edge="1" parent="1" source="CwbjklTr63x836lTTLuU-32" target="CwbjklTr63x836lTTLuU-23">
          <mxGeometry relative="1" as="geometry" />
        </mxCell>
        <mxCell id="CwbjklTr63x836lTTLuU-34" value="да" style="text;html=1;align=center;verticalAlign=middle;resizable=0;points=[];autosize=1;strokeColor=none;fillColor=none;" vertex="1" parent="1">
          <mxGeometry x="220" y="148" width="40" height="30" as="geometry" />
        </mxCell>
        <mxCell id="CwbjklTr63x836lTTLuU-35" value="нет" style="text;html=1;align=center;verticalAlign=middle;resizable=0;points=[];autosize=1;strokeColor=none;fillColor=none;" vertex="1" parent="1">
          <mxGeometry x="70" y="148" width="40" height="30" as="geometry" />
        </mxCell>
        <mxCell id="CwbjklTr63x836lTTLuU-36" value="да" style="text;html=1;align=center;verticalAlign=middle;resizable=0;points=[];autosize=1;strokeColor=none;fillColor=none;" vertex="1" parent="1">
          <mxGeometry x="534" y="150" width="40" height="30" as="geometry" />
        </mxCell>
        <mxCell id="CwbjklTr63x836lTTLuU-37" value="нет" style="text;html=1;align=center;verticalAlign=middle;resizable=0;points=[];autosize=1;strokeColor=none;fillColor=none;" vertex="1" parent="1">
          <mxGeometry x="379" y="148" width="40" height="30" as="geometry" />
        </mxCell>
      </root>
    </mxGraphModel>
  </diagram>
</mxfile>
